# xmcd CD database file
#
# Track frame offsets:
#	150
#	13705
#	27817
#	43607
#	58135
#	73717
#	89732
#	103845
#	116417
#	130237
#	143942
#	160270
#	175410
#	190102
#
# Disc length: 2723 seconds
#
# Revision: 0
# Processed by: cddbd v1.4b41PL2 Copyright (c) Steve Scherf et al.
# Submitted via: Feurio! 1.61 - http://www.feurio.com
#
DISCID=c80aa10e
DTITLE=Truck Stop - Cowboys und Texas-Boots
DYEAR=1900
DGENRE=
TTITLE0=Take it easy, altes Haus
TTITLE1=Das gabs doch nur in Dallas
TTITLE2=Ich steh auf Jeans und Country Music
TTITLE3=Mein Stiefel kommt in Himmel
TTITLE4=Square Dance-Darling
TTITLE5=Kopf oder Zahl
TTITLE6=Cowboys und Texas-Boots
TTITLE7=Der Wilde, Wilde Westen
TTITLE8=Bier vom Fass
TTITLE9=Willst du 'nen alten Freund behalten
TTITLE10=Heirate doch Jonny Hill
TTITLE11=Sweet Tequilla
TTITLE12=Die rechte Hand des Teufels
TTITLE13=Big white Diesel
EXTD=
EXTT0=
EXTT1=
EXTT2=
EXTT3=
EXTT4=
EXTT5=
EXTT6=
EXTT7=
EXTT8=
EXTT9=
EXTT10=
EXTT11=
EXTT12=
EXTT13=
PLAYORDER=
